<svg width="18" height="22" viewBox="0 0 18 22" fill="none" xmlns="http://www.w3.org/2000/svg">
<path d="M8.6499 14.5C10.8599 14.5 12.6499 12.71 12.6499 10.5V5C12.6499 2.79 10.8599 1 8.6499 1C6.4399 1 4.6499 2.79 4.6499 5V10.5C4.6499 12.71 6.4399 14.5 8.6499 14.5Z" stroke="white" stroke-width="1.5" stroke-linecap="round" stroke-linejoin="round"/>
<path d="M1 8.65012V10.3501C1 14.5701 4.43 18.0001 8.65 18.0001C12.87 18.0001 16.3 14.5701 16.3 10.3501V8.65012M7.26 5.43012C8.16 5.10012 9.14 5.10012 10.04 5.43012M7.85 7.55012C8.38 7.41012 8.93 7.41012 9.46 7.55012M8.65 18.0001V21.0001" stroke="white" stroke-width="1.5" stroke-linecap="round" stroke-linejoin="round"/>
</svg>
