<?xml version="1.0" encoding="utf-8"?>
<!-- Generator: Adobe Illustrator 24.2.1, SVG Export Plug-In . SVG Version: 6.00 Build 0)  -->
<svg version="1.1" id="레이어_1" xmlns="http://www.w3.org/2000/svg" xmlns:xlink="http://www.w3.org/1999/xlink" x="0px"
	y="0px" viewBox="0 0 192 192" style="enable-background:new 0 0 192 192;" xml:space="preserve">
	<style type="text/css">
	.st0{clip-path:url(#SVGID_1_);}
	.st1{fill:#409438;}
	.st2{fill:#BDC95E;}
	.st3{fill:#C01833;}
	.st4{fill:#344924;}
	.st5{fill:#E6E693;}
	.st6{fill:#A88164;}
	.st7{fill:#040000;}
	.st8{fill:#FFFFFF;}
	.st9{opacity:0.6;fill:#EFA0A0;}
	.st10{fill:#A1A232;}
	.st11{fill:#B28971;}
	.st12{fill:none;stroke:#040000;stroke-width:3;stroke-linecap:round;stroke-linejoin:round;stroke-miterlimit:10;}
	.st13{fill:#D2D8E8;}
	.st14{fill:none;}
</style>
	<g>
		<defs>
			<path id="SVGID_3_" d="M170,192H22c-12.15,0-22-9.85-22-22V22C0,9.85,9.85,0,22,0h148c12.15,0,22,9.85,22,22v148
			C192,182.15,182.15,192,170,192z" />
		</defs>
		<clipPath id="SVGID_1_">
			<use xlink:href="#SVGID_3_" style="overflow:visible;" />
		</clipPath>
		<g class="st0">
			<polygon class="st1" points="192,192 0,192 0,192 0,0 0,0 192,0 192,192 		" />
			<g>
				<path class="st2" d="M151.15,114.99c3.17,1.08,5.74,3.33,7.91,5.82c2.31,2.65,4.27,5.62,5.99,8.68
				c3.52,6.29,5.94,13.15,7.8,20.09c1.16,4.34,2.03,8.77,1.89,13.29c-0.04,1.3,1.98,1.3,2.02,0c0.12-4.16-0.57-8.29-1.58-12.31
				c-0.93-3.72-2.05-7.41-3.37-11.01c-2.57-6.99-5.97-13.75-10.75-19.5c-2.53-3.04-5.58-5.71-9.37-7
				C150.45,112.62,149.93,114.57,151.15,114.99L151.15,114.99z" />
			</g>
			<path class="st3" d="M88.11,58.22c-0.15,0.15-0.38,0.15-0.53,0l-9.38-9.38c-8.43-8.43,1.21-18.08,9.64-9.64
			c8.57-8.57,18.21,1.07,9.64,9.64L88.11,58.22z" />
			<g>
				<g>
					<path class="st2" d="M121.54,209.6c-0.39,9.48-0.57,18.96-0.53,28.45c0.04,9.49,0.31,18.97,0.79,28.45
					c0.27,5.37,0.61,10.75,1.02,16.11c0.1,1.33,2.15,0.95,2.05-0.38c-0.72-9.41-1.22-18.84-1.51-28.27
					c-0.28-9.39-0.35-18.79-0.2-28.18c0.08-5.34,0.24-10.67,0.46-16C123.67,208.45,121.59,208.26,121.54,209.6L121.54,209.6z" />
				</g>
				<g>
					<path class="st2" d="M62,208.64c-0.39,9.48-0.57,18.96-0.53,28.45c0.04,9.49,0.31,18.97,0.79,28.45
					c0.27,5.37,0.61,10.75,1.02,16.11c0.1,1.33,2.15,0.95,2.05-0.38c-0.72-9.41-1.22-18.84-1.51-28.27
					c-0.28-9.39-0.35-18.79-0.2-28.18c0.08-5.34,0.24-10.67,0.46-16C64.14,207.48,62.06,207.3,62,208.64L62,208.64z" />
				</g>
				<path class="st2" d="M122.22,283.9c-0.18,2.07,2.29,3.98,5.52,4.26c3.23,0.28,5.99-1.17,6.17-3.24s-2.29-3.98-5.52-4.26
				C125.16,280.37,122.4,281.83,122.22,283.9z" />
				<path class="st2" d="M64.21,282.64c-0.18,2.07,2.29,3.98,5.52,4.26c3.23,0.28,5.99-1.17,6.17-3.24c0.18-2.07-2.29-3.98-5.52-4.26
				C67.15,279.12,64.39,280.57,64.21,282.64z" />
			</g>
			<path class="st4" d="M122.91,25.01c1.8,0.97,10.62,5.93,16.25,16.25c4.11,7.53,4.74,14.64,5.54,23.64
			c0.7,7.91-0.18,8.66,0.37,17.36c0.68,10.74,2.61,18.83,3.69,23.27c3.5,14.37,6.69,16.91,11.08,29.92
			c2.84,8.41,7.99,24.12,6.65,43.59c-0.56,8.17-1.38,20.06-8.87,32.88c-2.61,4.47-11.28,18.84-28.82,25.86
			c-11.55,4.62-21.27,3.8-35.47,2.59c-10.71-0.91-21.63-1.84-34.36-8.13c-16.97-8.38-26.38-20.97-29.92-26.23
			c-11.37-16.89-12.75-33.36-13.3-41.01c-1.47-20.58,4.58-36.16,6.28-40.27c5.2-12.57,8.59-11.88,14.04-25.86
			c5.38-13.81,2.91-16.62,8.5-31.77c3.44-9.32,6.54-17.75,14.04-26.23c2.94-3.33,13.46-14.9,31.4-18.84
			C96.13,20.72,109.52,17.77,122.91,25.01z" />
			<path class="st2" d="M126.08,33.09c6.68,6.36,9.62,13.13,11.29,19.23c3.83,14.02,0.07,19.05,1.81,34.32
			c0.36,3.14,0.8,5.43,8.67,29.26c11.64,35.24,12.08,34.51,13,40.46c1.57,10.13,3.8,25.83-3.61,42.99
			c-6.29,14.56-16.45,23.02-20.95,26.37c-5.53,4.12-17.31,10.38-34.07,9.95c-18.74-0.47-31.5-9.67-36.73-14.65
			c-17.17-16.32-20.4-36.93-22.04-47.32c-1.16-7.38-2.89-18.4,0.72-31.43c1.95-7.02,3.55-7.79,8.67-21.31
			c2.96-7.82,4.78-13.87,8.31-25.65c5.97-19.95,4.8-18.7,7.95-27.82c5.04-14.58,7.72-22.57,14.81-30.71
			c4.86-5.57,11.06-11.39,20.55-12.44C116.33,23.03,124.19,31.29,126.08,33.09z" />
			<path class="st5" d="M109.61,33.88c11.84,1.03,18.6,15.3,19.58,17.36c2.2,4.65,2.73,9.07,3.69,17.73
			c1.55,13.9,0.16,17.92,1.11,26.23c1.34,11.76,5.15,12.59,10.71,28.45c3.49,9.94,8.98,26.11,6.65,45.44
			c-0.83,6.85-2.27,17.78-9.97,28.82c-3.52,5.04-10.52,15.07-23.27,18.47c-15.14,4.04-28.25-3.97-33.25-7.02
			c-19.55-11.94-25.03-32.8-26.23-37.68c-3.53-14.33-0.95-25.52,4.06-47.29c4.92-21.38,7.96-19.33,13.3-42.85
			c3.5-15.43,3.47-21.94,9.61-31.03C88.43,46.31,97.52,32.83,109.61,33.88z" />
			<g>
				<path class="st6" d="M123.43,129c9.3,5.76,11.84,16.61,13.21,24.81c1.45,8.69,3.02,22.6-6.36,32.62
				c-8.13,8.68-21.45,10.74-31.84,7.14c-16.05-5.56-22.99-23.88-21.13-38.09c0.32-2.46,2.11-13.96,12.2-22.02
				C98.15,126.57,112.69,122.35,123.43,129z" />
				<path class="st6" d="M129.21,174.01c-0.41-2.13-0.67-5.36-0.84-8.58c-0.25-4.9-1.59-8.26-2.6-13.43
				c-1.4-7.14-2.71-13.81-1.44-13.98c1.11-0.15,5.04,4.93,5.58,6.24c3.26,7.83,3.89,11.71,4.14,16.44
				c0.35,6.55-3.31,23.3-4.78,22.66C128.7,183.12,129.97,178.03,129.21,174.01z" />
			</g>
			<g>
				<g>
					<path class="st7" d="M97.53,78.33c0,3.6-1.78,6.51-3.97,6.51c-2.19,0-3.97-2.91-3.97-6.51c0-3.6,1.78-6.51,3.97-6.51
					C95.75,71.82,97.53,74.74,97.53,78.33z" />
					<circle class="st8" cx="95.2" cy="76.69" r="1.17" />
				</g>
				<g>
					<path class="st7" d="M119.66,79.5c0,3.6-1.78,6.51-3.97,6.51c-2.19,0-3.97-2.91-3.97-6.51c0-3.6,1.78-6.51,3.97-6.51
					C117.88,72.99,119.66,75.91,119.66,79.5z" />
					<circle class="st8" cx="117.33" cy="77.86" r="1.17" />
				</g>
				<g>
					<path class="st7" d="M109.39,97.8c-3.29,2.86-8.22,2.45-11.12-0.74c-0.9-0.99-2.38,0.48-1.47,1.47
					c3.7,4.07,9.96,4.31,14.07,0.74C111.88,98.4,110.4,96.93,109.39,97.8L109.39,97.8z" />
				</g>
				<path class="st9" d="M86.13,89.91c-0.32,1.94,1.34,3.82,3.69,4.21c2.36,0.38,4.52-0.87,4.84-2.81c0.32-1.94-1.34-3.82-3.69-4.21
				C88.61,86.72,86.45,87.98,86.13,89.91z" />
				<path class="st9" d="M122.8,92.39c-0.17,1.96-2.23,3.37-4.61,3.17c-2.38-0.21-4.17-1.96-4-3.92c0.17-1.96,2.23-3.37,4.61-3.17
				C121.18,88.68,122.97,90.43,122.8,92.39z" />
			</g>
			<g>
				<path class="st10" d="M174.81,162.48c-8.7,2.03-17.87,0.43-25.77-3.58c-2.15-1.09-4.21-2.35-6.18-3.74
				c-0.34,0.58-0.68,1.16-1.02,1.74c0.16,0.09,0.32,0.18,0.47,0.28c0.26-0.61,0.52-1.23,0.78-1.84c-2.5-0.8-5.02-1.52-7.56-2.16
				c-0.18,0.65-0.36,1.3-0.54,1.94c2.43,0.51,4.61,1.78,7.13,1.91c0.85,0.04,1.36-1.15,0.71-1.72c-1.98-1.76-3.72-3.76-5.19-5.97
				c-0.53,0.41-1.06,0.81-1.58,1.22c1.99,1.85,2.79,4.7,5.6,5.61c0.63,0.2,1.28-0.34,1.28-0.97c-0.01-2.36,0.03-4.72,0.13-7.07
				c0.06-1.3-1.96-1.29-2.02,0c-0.1,2.36-0.14,4.71-0.13,7.07c0.43-0.32,0.85-0.65,1.28-0.97c-1.08-0.35-1.82-1.27-2.44-2.17
				c-0.7-1.01-1.35-2.07-2.27-2.92c-0.81-0.75-2.24,0.23-1.58,1.22c1.56,2.35,3.4,4.5,5.5,6.38c0.24-0.57,0.48-1.15,0.71-1.72
				c-2.3-0.12-4.36-1.37-6.59-1.84c-1.26-0.27-1.8,1.62-0.54,1.94c2.54,0.64,5.06,1.37,7.56,2.16c1.1,0.35,1.75-1.27,0.78-1.84
				c-0.16-0.09-0.32-0.18-0.47-0.28c-1.14-0.67-2.06,1-1.02,1.74c7.42,5.23,16.28,8.54,25.43,8.48c2.72-0.02,5.43-0.34,8.08-0.96
				C176.61,164.13,176.07,162.19,174.81,162.48L174.81,162.48z" />
			</g>
			<g>
				<g>
					<path class="st6" d="M112.43,144.1c2.15,0.64,5,1.21,6.32,3.23c1.28,1.96,1.25,4.75,1.38,7c0.45,7.68,12.45,7.73,12,0
					c-0.28-4.74-0.75-9.8-3.53-13.82c-3.1-4.48-7.93-6.46-12.98-7.98C108.21,130.31,105.04,141.88,112.43,144.1L112.43,144.1z" />
				</g>
			</g>
			<g>
				<g>
					<path class="st11" d="M117.28,142.11c4.88,0.62,6.07,5.63,6.89,9.65c1.16,5.67,9.83,3.27,8.68-2.39
					c-0.84-4.09-2.01-8.11-4.94-11.23c-2.85-3.04-6.57-4.51-10.63-5.02c-2.42-0.31-4.5,2.29-4.5,4.5
					C112.78,140.3,114.86,141.8,117.28,142.11L117.28,142.11z" />
				</g>
			</g>
			<g>
				<g>
					<path class="st11" d="M130.71,165.37c5.79,0,5.8-9,0-9C124.91,156.37,124.9,165.37,130.71,165.37L130.71,165.37z" />
				</g>
			</g>
			<path class="st12" d="M122.65,156.39c0,0,15.08,4.8,25.8-46.6" />
			<g>
				<g>
					<path class="st2" d="M43.69,121.64c-16.83,17.37-28.98,39.09-35.06,62.44c-1.7,6.52-2.9,13.16-3.63,19.85
					c-0.13,1.16,1.7,1.15,1.83,0c2.58-23.52,11.4-46.25,25.2-65.51c3.92-5.48,8.26-10.65,12.95-15.49
					C45.81,122.09,44.51,120.8,43.69,121.64L43.69,121.64z" />
				</g>
				<g>
					<path class="st2" d="M5.45,203.04c-1.19,1.27-3.18,1.42-4.54,2.52c-0.91,0.74,0.39,2.02,1.29,1.29
					c1.37-1.12,3.28-1.18,4.54-2.52C7.55,203.47,6.26,202.18,5.45,203.04L5.45,203.04z" />
				</g>
				<g>
					<path class="st2" d="M5.35,203.56c-0.28,1.48-0.41,2.96-0.38,4.47c0.03,1.17,1.86,1.17,1.83,0c-0.03-1.34,0.06-2.66,0.31-3.98
					C7.33,202.89,5.57,202.4,5.35,203.56L5.35,203.56z" />
				</g>
				<g>
					<path class="st2" d="M5.41,203.93c0.14,0.98,0.8,1.74,1.39,2.5c0.73,0.94,1.49,1.86,2.28,2.75c0.78,0.88,2.07-0.41,1.29-1.29
					c-0.63-0.72-1.25-1.44-1.84-2.19c-0.53-0.67-1.24-1.38-1.36-2.26C7.01,202.29,5.25,202.78,5.41,203.93L5.41,203.93z" />
				</g>
			</g>
			<path class="st12" d="M104.29,157.24c0,0-40.01-3.09-70.53-49.43" />
			<path class="st13" d="M119.7,185.92h-17.57c-2.81,0-5.09-2.28-5.09-5.09v-26.04c0-2.81,2.28-5.09,5.09-5.09h17.57
			c2.81,0,5.09,2.28,5.09,5.09v26.04C124.79,183.64,122.51,185.92,119.7,185.92z" />
			<path class="st8" d="M116.01,175.27h-10.21c-2.76,0-4.99-2.23-4.99-4.99v-10.66c0-2.76,2.23-4.99,4.99-4.99h10.21
			c2.76,0,4.99,2.23,4.99,4.99v10.66C121,173.04,118.77,175.27,116.01,175.27z" />
			<path class="st14" d="M169.54,192.23H22.29c-12.36,0-22.37-10.02-22.37-22.37V22.61c0-12.36,10.02-22.37,22.37-22.37h147.25
			c12.36,0,22.37,10.02,22.37,22.37v147.25C191.91,182.22,181.9,192.23,169.54,192.23z" />
		</g>
	</g>
</svg>