<svg width="22" height="22" viewBox="0 0 22 22" fill="none" xmlns="http://www.w3.org/2000/svg">
<path d="M9.25798 7H12.258M5.51798 21H15.998C18.758 21 19.858 19.31 19.988 17.25L20.508 8.99C20.5404 8.47783 20.4674 7.96446 20.2936 7.48161C20.1197 6.99876 19.8487 6.5567 19.4972 6.18275C19.1458 5.80879 18.7213 5.51089 18.2502 5.30746C17.779 5.10403 17.2712 4.99939 16.758 5C16.148 5 15.588 4.65 15.308 4.11L14.588 2.66C14.128 1.75 12.928 1 11.908 1H9.61798C8.58798 1 7.38798 1.75 6.92798 2.66L6.20798 4.11C5.92798 4.65 5.36798 5 4.75798 5C2.58798 5 0.86798 6.83 1.00798 8.99L1.52798 17.25C1.64798 19.31 2.75798 21 5.51798 21Z" stroke="#9F9F9F" stroke-width="1.5" stroke-linecap="round" stroke-linejoin="round"/>
<path d="M10.7578 17C12.5478 17 14.0078 15.54 14.0078 13.75C14.0078 11.96 12.5478 10.5 10.7578 10.5C8.96781 10.5 7.50781 11.96 7.50781 13.75C7.50781 15.54 8.96781 17 10.7578 17Z" stroke="#9F9F9F" stroke-width="1.5" stroke-linecap="round" stroke-linejoin="round"/>
</svg>
