<svg width="61" height="61" viewBox="0 0 61 61" fill="none" xmlns="http://www.w3.org/2000/svg">
  <circle cx="30.4794" cy="30.4794" r="30.1031" fill="white" stroke="#ECECEC" stroke-width="0.752578" />
  <g clip-path="url(#clip0_206_82)">
    <path fill-rule="evenodd" clip-rule="evenodd" d="M48.3126 31.6506C48.3142 30.3855 48.2016 29.1228 47.9762 27.8778H30.542V35.0099H40.5021C40.2954 36.1368 39.8616 37.2104 39.227 38.1657C38.5924 39.121 37.77 39.9383 36.8096 40.5683V45.1956H42.7895C46.2885 41.9856 48.3074 37.2576 48.3074 31.6471L48.3126 31.6506Z" fill="#3E82F1" />
    <path fill-rule="evenodd" clip-rule="evenodd" d="M30.5473 49.6684C35.544 49.6684 39.7334 48.0183 42.7948 45.2026L36.8149 40.5753C35.1569 41.6817 33.0369 42.3366 30.5473 42.3366C25.7268 42.3366 21.6472 39.0919 20.1932 34.7338H14.0093V39.5122C15.5497 42.5663 17.9122 45.1336 20.8327 46.9271C23.7531 48.7205 27.1166 49.6697 30.5473 49.6684Z" fill="#32A753" />
    <path fill-rule="evenodd" clip-rule="evenodd" d="M20.1931 34.7338C19.419 32.4623 19.419 29.9999 20.1931 27.7285V22.95H14.0092C12.715 25.5201 12.041 28.3557 12.041 31.2311C12.041 34.1065 12.715 36.9422 14.0092 39.5122L20.1931 34.7338Z" fill="#F9BB00" />
    <path fill-rule="evenodd" clip-rule="evenodd" d="M30.5473 20.1257C33.2653 20.1257 35.7043 21.0567 37.622 22.884L42.929 17.5949C39.7246 14.6194 35.5352 12.7938 30.5507 12.7938C27.12 12.7926 23.7566 13.7417 20.8361 15.5352C17.9156 17.3287 15.5531 19.8959 14.0127 22.95L20.1966 27.7285C21.6506 23.3704 25.7302 20.1257 30.5507 20.1257H30.5473Z" fill="#E74133" />
  </g>
  <defs>
    <clipPath id="clip0_206_82">
      <rect width="36.2718" height="36.8763" fill="white" transform="translate(12.041 12.7938)" />
    </clipPath>
  </defs>
</svg>