<svg width="24" height="24" viewBox="0 0 33 31" fill="none" xmlns="http://www.w3.org/2000/svg">
  <path d="M30.4778 8.26516L25.7419 27.2789C25.5776 27.9664 25.1853 28.5782 24.6291 29.0145C24.0728 29.4508 23.3853 29.6861 22.6784 29.6819H4.21274C2.09073 29.6819 0.573012 27.6021 1.2054 25.5644L7.1217 6.56475C7.3194 5.92042 7.7178 5.35611 8.2588 4.95416C8.79979 4.5522 9.45507 4.33363 10.129 4.33032H27.4142C28.7492 4.33032 29.8594 5.1454 30.3232 6.26963C30.5902 6.87391 30.6464 7.56251 30.4778 8.26516Z" stroke="white" stroke-width="1.5" stroke-miterlimit="10" />
  <path d="M22.1445 29.682H28.8618C30.6746 29.682 32.094 28.1502 31.9675 26.3373L30.5763 7.19717M13.263 7.73118L14.7245 1.66029M22.6785 7.74524L23.9995 1.64624M10.4805 15.629H21.7229M9.0752 21.2502H20.3176" stroke="white" stroke-width="1.5" stroke-miterlimit="10" stroke-linecap="round" stroke-linejoin="round" />
</svg>